<svg width="24" height="34" viewBox="0 0 24 34" fill="none" xmlns="http://www.w3.org/2000/svg">
<path d="M12 33.1784C11.0895 31.9802 8.74046 28.828 6.41671 25.2089C2.54597 19.1804 0.5 14.6129 0.5 12C0.5 8.92824 1.69621 6.04033 3.86827 3.86827C6.04033 1.69621 8.92824 0.5 12 0.5C15.0718 0.5 17.9597 1.69621 20.1317 3.86827C22.3038 6.04033 23.5 8.92824 23.5 12C23.5 14.6138 21.4527 19.1835 17.5793 25.2151C15.2559 28.8331 12.9098 31.9813 12 33.1784Z" fill="#EA5656"/>
<path d="M12 1C9.06179 1 6.29945 2.1442 4.22182 4.22182C2.1442 6.29945 1 9.06179 1 12C1 13.7544 2.01205 17.4223 6.83345 24.9325C8.8639 28.0953 10.9149 30.9015 12 32.3485C13.0833 30.9041 15.1292 28.1051 17.1586 24.9449C21.9866 17.4268 23 13.7558 23 12C23 9.06179 21.8558 6.29945 19.7782 4.22182C17.7006 2.1442 14.9382 1 12 1ZM12 0C18.6274 0 24 5.37258 24 12C24 18.6274 12 34 12 34C12 34 0 18.6274 0 12C0 5.37258 5.37258 0 12 0Z" fill="#000081"/>
<path d="M11.1147 10.9863V11.9727H8.53662V13.8672H12.0034V14.8828H3.86865V13.8672H7.29639V11.9727H4.82568V7.63672H11.0464V8.63281H6.07568V10.9863H11.1147ZM15.7827 8.92578C15.7876 9.84375 16.4224 10.8008 17.8726 11.1816L17.2964 12.168C16.2856 11.8945 15.5825 11.3086 15.1772 10.5762C14.7866 11.3818 14.0786 12.0166 13.0386 12.3145L12.4429 11.3379C13.8833 10.9473 14.5425 9.92188 14.5425 8.92578H12.7554V7.93945H14.5425V6.98242H15.8022V7.93945H17.5796V8.92578H15.7827ZM13.5757 13.8184V12.8223H19.562V15.9082H18.312V13.8184H13.5757ZM18.312 12.4609V7.01172H19.562V9.19922H20.7632V10.2441H19.562V12.4609H18.312Z" fill="white"/>
</svg>
