<svg width="40" height="40" viewBox="0 0 40 40" fill="none" xmlns="http://www.w3.org/2000/svg">
<path d="M28 0H12C5.37258 0 0 5.37258 0 12V28C0 34.6274 5.37258 40 12 40H28C34.6274 40 40 34.6274 40 28V12C40 5.37258 34.6274 0 28 0Z" fill="#DFF2FF"/>
<mask id="mask0_974_9755" style="mask-type:luminance" maskUnits="userSpaceOnUse" x="11" y="9" width="18" height="22">
<path d="M28.3904 9H11.6104V30.453H28.3904V9Z" fill="white"/>
</mask>
<g mask="url(#mask0_974_9755)">
<path d="M28.3804 24.543C28.3804 24.525 28.3904 24.51 28.3904 24.492V9.816C28.3904 9.70876 28.3692 9.60257 28.3281 9.5035C28.2871 9.40443 28.2269 9.31443 28.151 9.23865C28.0751 9.16286 27.985 9.10278 27.8859 9.06183C27.7868 9.02088 27.6806 8.99987 27.5734 9H12.4264C12.2099 9 12.0024 9.08597 11.8494 9.239C11.6963 9.39203 11.6104 9.59958 11.6104 9.816V29.636C11.6104 29.8524 11.6963 30.06 11.8494 30.213C12.0024 30.366 12.2099 30.452 12.4264 30.452H22.4264C22.6427 30.4515 22.85 30.3656 23.0034 30.213L28.1484 25.068C28.2154 24.9985 28.2696 24.9175 28.3084 24.829C28.3194 24.804 28.3274 24.778 28.3364 24.752C28.3593 24.6841 28.3734 24.6135 28.3784 24.542M13.2434 10.633H26.7564V23.675H22.4284C22.212 23.6753 22.0046 23.7613 21.8516 23.9143C21.6987 24.0673 21.6126 24.2747 21.6124 24.491V28.82H13.2434V10.633ZM23.2434 27.665V25.308H25.6004L23.2434 27.665Z" fill="#5EBCFF"/>
<path d="M15.8761 15.1135H24.1241C24.3406 15.1135 24.5483 15.0274 24.7014 14.8743C24.8545 14.7212 24.9406 14.5135 24.9406 14.297C24.9406 14.0804 24.8545 13.8727 24.7014 13.7196C24.5483 13.5665 24.3406 13.4805 24.1241 13.4805H15.8761C15.6595 13.4805 15.4518 13.5665 15.2987 13.7196C15.1456 13.8727 15.0596 14.0804 15.0596 14.297C15.0596 14.5135 15.1456 14.7212 15.2987 14.8743C15.4518 15.0274 15.6595 15.1135 15.8761 15.1135Z" fill="#5EBCFF"/>
<path d="M15.8761 18.3439H24.1241C24.3406 18.3439 24.5483 18.2579 24.7014 18.1048C24.8545 17.9517 24.9406 17.744 24.9406 17.5274C24.9406 17.3109 24.8545 17.1032 24.7014 16.9501C24.5483 16.797 24.3406 16.7109 24.1241 16.7109H15.8761C15.6595 16.7109 15.4518 16.797 15.2987 16.9501C15.1456 17.1032 15.0596 17.3109 15.0596 17.5274C15.0596 17.744 15.1456 17.9517 15.2987 18.1048C15.4518 18.2579 15.6595 18.3439 15.8761 18.3439Z" fill="#5EBCFF"/>
<path d="M20.3281 19.9414H15.8761C15.6595 19.9414 15.4518 20.0274 15.2987 20.1806C15.1456 20.3337 15.0596 20.5414 15.0596 20.7579C15.0596 20.9745 15.1456 21.1821 15.2987 21.3353C15.4518 21.4884 15.6595 21.5744 15.8761 21.5744H20.3281C20.5446 21.5744 20.7523 21.4884 20.9054 21.3353C21.0585 21.1821 21.1446 20.9745 21.1446 20.7579C21.1446 20.5414 21.0585 20.3337 20.9054 20.1806C20.7523 20.0274 20.5446 19.9414 20.3281 19.9414Z" fill="#5EBCFF"/>
</g>
</svg>
