<svg width="40" height="40" viewBox="0 0 40 40" fill="none" xmlns="http://www.w3.org/2000/svg">
<path d="M28 0H12C5.37258 0 0 5.37258 0 12V28C0 34.6274 5.37258 40 12 40H28C34.6274 40 40 34.6274 40 28V12C40 5.37258 34.6274 0 28 0Z" fill="#FFFCDD"/>
<mask id="mask0_974_9790" style="mask-type:luminance" maskUnits="userSpaceOnUse" x="10" y="9" width="20" height="22">
<path d="M29.7838 9.34375H10.2168V30.6597H29.7838V9.34375Z" fill="white"/>
</mask>
<g mask="url(#mask0_974_9790)">
<path d="M29.2856 23.5368L24.8636 14.3868L27.2526 10.5948C27.3304 10.4714 27.3736 10.3295 27.3779 10.1837C27.3822 10.038 27.3474 9.89379 27.277 9.76609C27.2067 9.63838 27.1034 9.53185 26.978 9.45758C26.8525 9.3833 26.7094 9.344 26.5636 9.34375H13.4366C13.2905 9.34353 13.147 9.38254 13.0211 9.45672C12.8953 9.5309 12.7916 9.63753 12.721 9.76545C12.6504 9.89338 12.6154 10.0379 12.6198 10.184C12.6241 10.33 12.6676 10.4722 12.7456 10.5958L15.1356 14.3878L10.7166 23.5368C10.3512 24.2936 10.1838 25.1308 10.2302 25.9699C10.2766 26.8091 10.5353 27.6227 10.982 28.3346C11.4287 29.0465 12.0488 29.6334 12.7842 30.0402C13.5196 30.4471 14.3462 30.6606 15.1866 30.6607H24.8166C25.6572 30.6607 26.4839 30.4474 27.2195 30.0406C27.955 29.6338 28.5752 29.047 29.022 28.335C29.4688 27.6231 29.7276 26.8094 29.774 25.9702C29.8205 25.1309 29.6531 24.2936 29.2876 23.5368M25.0876 10.9768L23.4876 13.5188H16.5166L14.9166 10.9768H25.0876ZM27.6366 27.4657C27.3383 27.9444 26.9227 28.339 26.4292 28.6122C25.9357 28.8854 25.3807 29.028 24.8166 29.0268H15.1846C14.6207 29.0266 14.0661 28.8833 13.5727 28.6104C13.0792 28.3374 12.6631 27.9436 12.3634 27.466C12.0636 26.9884 11.8899 26.4425 11.8587 25.8794C11.8274 25.3164 11.9396 24.7546 12.1846 24.2468L16.5846 15.1468H23.4166L27.8166 24.2468C28.0636 24.754 28.1769 25.316 28.1458 25.8794C28.1146 26.4427 27.94 26.9888 27.6386 27.4657" fill="#FFD037"/>
<path d="M22.2624 19.8479C22.479 19.8479 22.6867 19.7619 22.8398 19.6088C22.9929 19.4556 23.0789 19.248 23.0789 19.0314C23.0789 18.8149 22.9929 18.6072 22.8398 18.4541C22.6867 18.3009 22.479 18.2149 22.2624 18.2149H20.8164V17.8829C20.8164 17.6664 20.7304 17.4587 20.5773 17.3056C20.4242 17.1524 20.2165 17.0664 19.9999 17.0664C19.7834 17.0664 19.5757 17.1524 19.4226 17.3056C19.2694 17.4587 19.1834 17.6664 19.1834 17.8829V18.2249C18.5759 18.2466 18.0005 18.5033 17.5783 18.9408C17.1562 19.3783 16.9203 19.9625 16.9203 20.5704C16.9203 21.1783 17.1562 21.7626 17.5783 22.2001C18.0005 22.6375 18.5759 22.8942 19.1834 22.9159V24.3689H17.7364C17.5199 24.3689 17.3122 24.4549 17.1591 24.6081C17.0059 24.7612 16.9199 24.9689 16.9199 25.1854C16.9199 25.402 17.0059 25.6096 17.1591 25.7628C17.3122 25.9159 17.5199 26.0019 17.7364 26.0019H19.1834V26.2939C19.1834 26.5105 19.2694 26.7181 19.4226 26.8713C19.5757 27.0244 19.7834 27.1104 19.9999 27.1104C20.2165 27.1104 20.4242 27.0244 20.5773 26.8713C20.7304 26.7181 20.8164 26.5105 20.8164 26.2939V25.9939C21.424 25.9722 21.9994 25.7155 22.4215 25.2781C22.8436 24.8406 23.0795 24.2563 23.0795 23.6484C23.0795 23.0405 22.8436 22.4563 22.4215 22.0188C21.9994 21.5813 21.424 21.3246 20.8164 21.3029V19.8479H22.2624ZM18.5534 20.5709C18.5558 20.3977 18.621 20.2313 18.7369 20.1025C18.8528 19.9738 19.0114 19.8915 19.1834 19.8709V21.2779C19.0114 21.2575 18.8526 21.1753 18.7367 21.0465C18.6207 20.9177 18.5556 20.7512 18.5534 20.5779M21.4464 23.6549C21.4442 23.8282 21.3791 23.9947 21.2632 24.1235C21.1473 24.2523 20.9885 24.3345 20.8164 24.3549V22.9439C20.9884 22.9645 21.1471 23.0468 21.2629 23.1755C21.3788 23.3043 21.444 23.4707 21.4464 23.6439" fill="#FFD037"/>
</g>
</svg>
