<svg width="40" height="40" viewBox="0 0 40 40" fill="none" xmlns="http://www.w3.org/2000/svg">
<path d="M28 0H12C5.37258 0 0 5.37258 0 12V28C0 34.6274 5.37258 40 12 40H28C34.6274 40 40 34.6274 40 28V12C40 5.37258 34.6274 0 28 0Z" fill="#E4F9E1"/>
<mask id="mask0_974_9778" style="mask-type:luminance" maskUnits="userSpaceOnUse" x="7" y="6" width="26" height="28">
<path d="M32.9693 6.90625H7.03027V33.0952H32.9693V6.90625Z" fill="white"/>
</mask>
<g mask="url(#mask0_974_9778)">
<path d="M14.286 24.0048C14.2858 23.585 14.1612 23.1746 13.9278 22.8256C13.6944 22.4766 13.3627 22.2047 12.9748 22.0441C12.5868 21.8836 12.16 21.8417 11.7483 21.9237C11.3365 22.0058 10.9583 22.208 10.6615 22.505C10.3647 22.8019 10.1626 23.1802 10.0808 23.592C9.99892 24.0038 10.041 24.4306 10.2017 24.8185C10.3625 25.2064 10.6346 25.5379 10.9837 25.7711C11.3328 26.0043 11.7432 26.1288 12.163 26.1288C12.726 26.128 13.2657 25.904 13.6637 25.5058C14.0617 25.1076 14.2855 24.5678 14.286 24.0048ZM11.673 24.0048C11.6732 23.9079 11.7021 23.8133 11.7561 23.7329C11.8101 23.6524 11.8867 23.5898 11.9762 23.5528C12.0658 23.5159 12.1643 23.5063 12.2592 23.5254C12.3542 23.5444 12.4414 23.5911 12.5099 23.6597C12.5783 23.7283 12.6249 23.8156 12.6437 23.9106C12.6625 24.0056 12.6528 24.1041 12.6156 24.1936C12.5785 24.283 12.5157 24.3595 12.4352 24.4133C12.3546 24.4671 12.2599 24.4958 12.163 24.4958C12.0986 24.4958 12.0348 24.4831 11.9753 24.4584C11.9158 24.4337 11.8617 24.3975 11.8162 24.3519C11.7707 24.3063 11.7346 24.2522 11.7101 24.1926C11.6855 24.1331 11.6729 24.0692 11.673 24.0048Z" fill="#77DE69"/>
<path d="M29.6249 12.206C29.6251 11.786 29.5007 11.3753 29.2674 11.026C29.0341 10.6766 28.7024 10.4044 28.3143 10.2436C27.9263 10.0829 27.4992 10.0409 27.0872 10.1229C26.6753 10.205 26.2969 10.4074 26 10.7046C25.7031 11.0017 25.5011 11.3803 25.4194 11.7923C25.3377 12.2044 25.3802 12.6314 25.5413 13.0193C25.7024 13.4073 25.975 13.7387 26.3245 13.9716C26.6741 14.2046 27.0848 14.3286 27.5049 14.328C28.067 14.3264 28.6056 14.1023 29.0029 13.7046C29.4002 13.307 29.6239 12.7681 29.6249 12.206ZM27.0119 12.206C27.0119 12.1091 27.0406 12.0144 27.0945 11.9338C27.1483 11.8532 27.2249 11.7904 27.3144 11.7533C27.4039 11.7162 27.5025 11.7065 27.5975 11.7254C27.6926 11.7444 27.7799 11.791 27.8484 11.8595C27.9169 11.9281 27.9636 12.0154 27.9825 12.1104C28.0014 12.2055 27.9917 12.304 27.9546 12.3935C27.9175 12.4831 27.8547 12.5596 27.7741 12.6135C27.6936 12.6673 27.5988 12.696 27.5019 12.696C27.372 12.6958 27.2476 12.6441 27.1557 12.5522C27.0639 12.4604 27.0122 12.3359 27.0119 12.206Z" fill="#77DE69"/>
<path d="M28.9643 25.0847H22.5943C22.0945 25.0847 21.6151 24.8862 21.2617 24.5328C20.9083 24.1794 20.7098 23.7001 20.7098 23.2003C20.7098 22.7004 20.9083 22.2211 21.2617 21.8677C21.6151 21.5143 22.0945 21.3158 22.5943 21.3158H27.5023C27.6295 21.3144 27.7545 21.2828 27.867 21.2235C27.9795 21.1642 28.0763 21.0789 28.1493 20.9747C28.1553 20.9677 28.1623 20.9618 28.1683 20.9548C28.6253 20.3127 32.6303 14.6068 32.6303 12.0388C32.6303 10.6775 32.0895 9.37205 31.127 8.40952C30.1645 7.44699 28.859 6.90625 27.4978 6.90625C26.1366 6.90625 24.8311 7.44699 23.8685 8.40952C22.906 9.37205 22.3653 10.6775 22.3653 12.0388C22.3653 13.9768 24.6453 17.6957 25.9653 19.6827H22.5943C22.1323 19.6827 21.6749 19.7737 21.2482 19.9505C20.8214 20.1273 20.4337 20.3864 20.107 20.713C19.7804 21.0396 19.5213 21.4274 19.3445 21.8542C19.1678 22.2809 19.0768 22.7383 19.0768 23.2003C19.0768 23.6622 19.1678 24.1196 19.3445 24.5463C19.5213 24.9731 19.7804 25.3609 20.107 25.6875C20.4337 26.0141 20.8214 26.2732 21.2482 26.45C21.6749 26.6268 22.1323 26.7178 22.5943 26.7178H28.9633C29.2789 26.7113 29.5927 26.7678 29.8862 26.8842C30.1797 27.0005 30.4471 27.1742 30.6726 27.3952C30.8982 27.6161 31.0773 27.8798 31.1997 28.1709C31.322 28.462 31.385 28.7745 31.385 29.0903C31.385 29.406 31.322 29.7185 31.1997 30.0096C31.0773 30.3007 30.8982 30.5644 30.6726 30.7853C30.4471 31.0063 30.1797 31.18 29.8862 31.2963C29.5927 31.4127 29.2789 31.4692 28.9633 31.4627H13.7103C15.0293 29.4707 17.2943 25.7697 17.2943 23.8377C17.2943 22.4767 16.7536 21.1713 15.7911 20.2089C14.8287 19.2464 13.5234 18.7057 12.1623 18.7057C10.8012 18.7057 9.49584 19.2464 8.5334 20.2089C7.57096 21.1713 7.03027 22.4767 7.03027 23.8377C7.03027 26.4067 11.0403 32.1068 11.4983 32.7528C11.5194 32.7791 11.5421 32.8041 11.5663 32.8277C11.5793 32.8417 11.5903 32.8557 11.6043 32.8687C11.6697 32.9309 11.7451 32.9816 11.8273 33.0187C11.8439 33.0259 11.861 33.0323 11.8783 33.0378C11.9693 33.0742 12.0662 33.0939 12.1643 33.0957H28.9643C29.4956 33.1041 30.0233 33.0067 30.5166 32.8092C31.01 32.6117 31.4591 32.318 31.8378 31.9452C32.2165 31.5724 32.5172 31.128 32.7225 30.6379C32.9278 30.1477 33.0336 29.6217 33.0336 29.0903C33.0336 28.5588 32.9278 28.0328 32.7225 27.5426C32.5172 27.0525 32.2165 26.6081 31.8378 26.2353C31.4591 25.8625 31.01 25.5688 30.5166 25.3713C30.0233 25.1738 29.4956 25.0764 28.9643 25.0847ZM27.5023 8.53975C28.4305 8.53975 29.3208 8.9085 29.9771 9.56488C30.6335 10.2213 31.0023 11.1115 31.0023 12.0398C31.0023 13.3848 29.0663 16.7128 27.5023 19.0398C25.9383 16.7098 24.0023 13.3808 24.0023 12.0398C24.0023 11.1115 24.371 10.2213 25.0274 9.56488C25.6838 8.9085 26.574 8.53975 27.5023 8.53975ZM12.1623 20.3397C13.0905 20.3397 13.9808 20.7085 14.6371 21.3649C15.2935 22.0213 15.6623 22.9115 15.6623 23.8398C15.6623 25.1858 13.7263 28.5128 12.1623 30.8398C10.5983 28.5098 8.66227 25.1818 8.66227 23.8398C8.66227 22.9115 9.03102 22.0213 9.6874 21.3649C10.3438 20.7085 11.234 20.3397 12.1623 20.3397Z" fill="#77DE69"/>
</g>
</svg>
