<svg width="40" height="40" viewBox="0 0 40 40" fill="none" xmlns="http://www.w3.org/2000/svg">
<path d="M28 0H12C5.37258 0 0 5.37258 0 12V28C0 34.6274 5.37258 40 12 40H28C34.6274 40 40 34.6274 40 28V12C40 5.37258 34.6274 0 28 0Z" fill="#D6D6D6"/>
<mask id="mask0_974_9822" style="mask-type:luminance" maskUnits="userSpaceOnUse" x="8" y="8" width="24" height="24">
<path d="M31.0379 8.96094H8.96191V31.0369H31.0379V8.96094Z" fill="white"/>
</mask>
<g mask="url(#mask0_974_9822)">
<path d="M30.2209 17.5539H28.2959C28.1244 16.9666 27.8897 16.3997 27.5959 15.8629L28.9599 14.4989C29.0357 14.4232 29.0958 14.3332 29.1368 14.2342C29.1778 14.1352 29.1989 14.0291 29.1989 13.9219C29.1989 13.8148 29.1778 13.7087 29.1368 13.6097C29.0958 13.5107 29.0357 13.4207 28.9599 13.3449L26.6599 11.0449C26.5841 10.9692 26.4942 10.9091 26.3952 10.8681C26.2962 10.827 26.1901 10.8059 26.0829 10.8059C25.9758 10.8059 25.8696 10.827 25.7706 10.8681C25.6716 10.9091 25.5817 10.9692 25.5059 11.0449L24.1349 12.4069C23.5979 12.1137 23.031 11.879 22.4439 11.7069V9.77694C22.4437 9.5606 22.3576 9.3532 22.2046 9.20023C22.0517 9.04726 21.8443 8.9612 21.6279 8.96094H18.3719C18.1556 8.9612 17.9482 9.04726 17.7952 9.20023C17.6422 9.3532 17.5562 9.5606 17.5559 9.77694V11.7029C16.9689 11.8752 16.402 12.1099 15.8649 12.4029L14.5009 11.0429C14.4251 10.9672 14.3352 10.9071 14.2362 10.8661C14.1372 10.825 14.0311 10.8039 13.9239 10.8039C13.8168 10.8039 13.7106 10.825 13.6116 10.8661C13.5126 10.9071 13.4227 10.9672 13.3469 11.0429L11.0469 13.3429C10.8941 13.4961 10.8083 13.7036 10.8083 13.9199C10.8083 14.1363 10.8941 14.3438 11.0469 14.4969L12.4079 15.8609C12.1145 16.3978 11.8798 16.9648 11.7079 17.5519H9.77792C9.67054 17.5521 9.56425 17.5734 9.46511 17.6146C9.36597 17.6558 9.27593 17.7162 9.20015 17.7923C9.12436 17.8684 9.06431 17.9586 9.02344 18.0579C8.98256 18.1572 8.96165 18.2636 8.96192 18.3709V21.6269C8.96218 21.8433 9.04824 22.0507 9.20121 22.2036C9.35418 22.3566 9.56158 22.4427 9.77792 22.4429H11.7039C11.8754 23.0306 12.1101 23.5979 12.4039 24.1349L11.0439 25.4989C10.8911 25.6521 10.8053 25.8596 10.8053 26.0759C10.8053 26.2923 10.8911 26.4998 11.0439 26.6529L13.3439 28.9529C13.4999 29.1003 13.7063 29.1825 13.9209 29.1825C14.1355 29.1825 14.342 29.1003 14.4979 28.9529L15.8619 27.5919C16.3988 27.8854 16.9657 28.1201 17.5529 28.2919V30.2169C17.5529 30.4334 17.6389 30.6409 17.7919 30.7939C17.9449 30.947 18.1525 31.0329 18.3689 31.0329H21.6249C21.7321 31.0329 21.8382 31.0118 21.9372 30.9708C22.0362 30.9298 22.1261 30.8697 22.2019 30.7939C22.2777 30.7182 22.3378 30.6282 22.3788 30.5292C22.4198 30.4302 22.4409 30.3241 22.4409 30.2169V28.2949C23.0282 28.1232 23.5951 27.8885 24.1319 27.5949L25.4959 28.9589C25.6491 29.1117 25.8566 29.1975 26.0729 29.1975C26.2893 29.1975 26.4968 29.1117 26.6499 28.9589L28.9499 26.6589C29.0257 26.5832 29.0858 26.4932 29.1268 26.3942C29.1678 26.2952 29.1889 26.1891 29.1889 26.0819C29.1889 25.9748 29.1678 25.8687 29.1268 25.7697C29.0858 25.6707 29.0257 25.5807 28.9499 25.5049L27.5919 24.1349C27.8857 23.5979 28.1204 23.0306 28.2919 22.4429H30.2169C30.4333 22.4427 30.6406 22.3566 30.7936 22.2036C30.9466 22.0507 31.0326 21.8433 31.0329 21.6269V18.3709C31.0326 18.1546 30.9466 17.9472 30.7936 17.7942C30.6406 17.6413 30.4333 17.5552 30.2169 17.5549M29.4009 20.8109H27.6619C27.4746 20.8107 27.2929 20.8749 27.1473 20.9927C27.0016 21.1105 26.9009 21.2747 26.8619 21.4579C26.6837 22.2985 26.3511 23.0987 25.8809 23.8179C25.7788 23.9746 25.7336 24.1617 25.7529 24.3477C25.7722 24.5338 25.8548 24.7075 25.9869 24.8399L27.2229 26.0759L26.0749 27.2229L24.8399 25.9879C24.7077 25.8552 24.5338 25.7722 24.3474 25.7527C24.1611 25.7332 23.9738 25.7785 23.8169 25.8809C23.0992 26.3502 22.3007 26.6825 21.4619 26.8609C21.2787 26.8999 21.1145 27.0007 20.9967 27.1463C20.8789 27.2919 20.8147 27.4736 20.8149 27.6609V29.4039H19.1879V27.6609C19.1883 27.4736 19.1242 27.2918 19.0064 27.1461C18.8886 27.0004 18.7242 26.8997 18.5409 26.8609C17.7007 26.683 16.9009 26.3507 16.1819 25.8809C16.0251 25.7785 15.8377 25.7332 15.6514 25.7527C15.4651 25.7722 15.2912 25.8552 15.1589 25.9879L13.9239 27.2229L12.7759 26.0759L14.0109 24.8399C14.1432 24.7077 14.2261 24.5341 14.2457 24.348C14.2654 24.162 14.2206 23.9749 14.1189 23.8179C13.6488 23.0987 13.3161 22.2985 13.1379 21.4579C13.0989 21.2747 12.9982 21.1105 12.8526 20.9927C12.7069 20.8749 12.5252 20.8107 12.3379 20.8109H10.5949V19.1869H12.3389C12.5263 19.1873 12.7081 19.1232 12.8537 19.0054C12.9994 18.8876 13.1001 18.7232 13.1389 18.5399C13.3169 17.6998 13.6491 16.8999 14.1189 16.1809C14.2201 16.0241 14.2646 15.8374 14.2449 15.6519C14.2253 15.4663 14.1427 15.2931 14.0109 15.1609L12.7759 13.9229L13.9239 12.7749L15.1619 14.0109C15.2944 14.1433 15.4682 14.2262 15.6545 14.2456C15.8407 14.2651 16.028 14.22 16.1849 14.1179C16.9036 13.6475 17.7036 13.3148 18.5439 13.1369C18.7271 13.098 18.8914 12.9972 19.0092 12.8516C19.127 12.7059 19.1911 12.5242 19.1909 12.3369V10.5939H20.8139V12.3379C20.8139 12.5252 20.8781 12.7068 20.9959 12.8524C21.1136 12.998 21.2778 13.0988 21.4609 13.1379C22.3013 13.3158 23.1012 13.6485 23.8199 14.1189C23.9769 14.221 24.1641 14.2661 24.3504 14.2466C24.5366 14.2272 24.7105 14.1443 24.8429 14.0119L26.0779 12.7759L27.2259 13.9239L25.9879 15.1609C25.8563 15.2932 25.774 15.4666 25.7547 15.6522C25.7354 15.8378 25.7803 16.0244 25.8819 16.1809C26.3517 16.8999 26.684 17.6998 26.8619 18.5399C26.9007 18.7232 27.0014 18.8876 27.1471 19.0054C27.2928 19.1232 27.4746 19.1873 27.6619 19.1869H29.4059L29.4009 20.8109Z" fill="#363636"/>
<path d="M19.9978 17.2539C19.4553 17.2545 18.9252 17.4159 18.4745 17.7178C18.0238 18.0196 17.6727 18.4484 17.4656 18.9497C17.2585 19.4511 17.2047 20.0027 17.311 20.5346C17.4174 21.0666 17.6791 21.555 18.063 21.9383C18.4469 22.3215 18.9359 22.5823 19.468 22.6877C20.0001 22.793 20.5516 22.7382 21.0526 22.5302C21.5536 22.3222 21.9817 21.9703 22.2827 21.5191C22.5837 21.0678 22.7442 20.5374 22.7438 19.9949C22.7422 19.2676 22.4522 18.5706 21.9375 18.0567C21.4227 17.5429 20.7252 17.2542 19.9978 17.2539ZM19.9978 21.1079C19.7783 21.1079 19.5637 21.0428 19.3811 20.9208C19.1986 20.7989 19.0563 20.6255 18.9723 20.4227C18.8883 20.2199 18.8663 19.9967 18.9091 19.7814C18.952 19.566 19.0577 19.3683 19.2129 19.213C19.3682 19.0578 19.5659 18.9521 19.7813 18.9092C19.9966 18.8664 20.2198 18.8884 20.4226 18.9724C20.6254 19.0564 20.7988 19.1987 20.9207 19.3812C21.0427 19.5638 21.1078 19.7784 21.1078 19.9979C21.1073 20.2921 20.9902 20.5742 20.7821 20.7822C20.5741 20.9903 20.292 21.1074 19.9978 21.1079Z" fill="#363636"/>
</g>
</svg>
