<svg width="40" height="40" viewBox="0 0 40 40" fill="none" xmlns="http://www.w3.org/2000/svg">
<path d="M28 0H12C5.37258 0 0 5.37258 0 12V28C0 34.6274 5.37258 40 12 40H28C34.6274 40 40 34.6274 40 28V12C40 5.37258 34.6274 0 28 0Z" fill="#E0DFFF"/>
<mask id="mask0_974_9812" style="mask-type:luminance" maskUnits="userSpaceOnUse" x="7" y="9" width="26" height="22">
<path d="M32.2623 9.63281H7.73926V30.3708H32.2623V9.63281Z" fill="white"/>
</mask>
<g mask="url(#mask0_974_9812)">
<path d="M29.2474 23.6888V20.3168C29.2472 20.1005 29.1611 19.8931 29.0082 19.7401C28.8552 19.5871 28.6478 19.5011 28.4314 19.5008H20.8174V17.3528H23.0394C23.2559 17.3528 23.4634 17.2668 23.6164 17.1138C23.7695 16.9608 23.8554 16.7532 23.8554 16.5368V10.4488C23.8554 10.2324 23.7695 10.0248 23.6164 9.87181C23.4634 9.71878 23.2559 9.63281 23.0394 9.63281H16.9574C16.8502 9.63268 16.7439 9.65368 16.6447 9.69462C16.5455 9.73556 16.4554 9.79563 16.3794 9.8714C16.3035 9.94717 16.2432 10.0372 16.202 10.1362C16.1608 10.2353 16.1396 10.3415 16.1394 10.4488V16.5328C16.1397 16.7491 16.2258 16.9565 16.3787 17.1095C16.5317 17.2625 16.7391 17.3485 16.9554 17.3488H19.1824V19.5008H11.5724C11.3561 19.5011 11.1487 19.5871 10.9957 19.7401C10.8428 19.8931 10.7567 20.1005 10.7564 20.3168V23.6888C9.95229 23.7807 9.20931 24.1628 8.66696 24.7636C8.1246 25.3644 7.82016 26.1425 7.81077 26.9518C7.80138 27.7611 8.0877 28.5461 8.61598 29.1593C9.14426 29.7725 9.87818 30.1718 10.68 30.2822C11.4818 30.3927 12.2963 30.2068 12.9708 29.7593C13.6452 29.3118 14.1331 28.6335 14.3429 27.8518C14.5528 27.0701 14.4701 26.2387 14.1104 25.5136C13.7507 24.7886 13.1388 24.2197 12.3894 23.9138V21.1328H19.1894V23.7648C18.3947 23.964 17.7002 24.447 17.2367 25.1227C16.7733 25.7984 16.5729 26.6202 16.6732 27.4334C16.7736 28.2466 17.1678 28.995 17.7817 29.5377C18.3955 30.0805 19.1866 30.38 20.0059 30.38C20.8253 30.38 21.6164 30.0805 22.2302 29.5377C22.8441 28.995 23.2383 28.2466 23.3387 27.4334C23.439 26.6202 23.2386 25.7984 22.7752 25.1227C22.3117 24.447 21.6172 23.964 20.8224 23.7648V21.1328H27.6224V23.9128C26.8564 24.2213 26.2296 24.7993 25.86 25.5378C25.4904 26.2763 25.4035 27.1245 25.6158 27.9226C25.828 28.7207 26.3247 29.4137 27.0123 29.8711C27.6999 30.3285 28.531 30.5188 29.3491 30.406C30.1672 30.2933 30.9159 29.8854 31.4542 29.2591C31.9925 28.6328 32.2833 27.8313 32.2717 27.0055C32.2602 26.1798 31.9472 25.3867 31.3917 24.7756C30.8361 24.1646 30.0764 23.7777 29.2554 23.6878M12.8234 27.0128C12.8234 27.0358 12.8174 27.0578 12.8164 27.0808C12.8009 27.4784 12.6478 27.8582 12.3834 28.1555C12.1189 28.4528 11.7595 28.649 11.3664 28.7108C11.2776 28.7269 11.1877 28.7359 11.0974 28.7378C11.0304 28.735 10.9637 28.7283 10.8974 28.7178C10.4966 28.6712 10.125 28.4847 9.84807 28.1911C9.57115 27.8975 9.40662 27.5157 9.38344 27.1128C9.38344 27.0798 9.37244 27.0478 9.37244 27.0128C9.37303 26.9037 9.38408 26.7948 9.40544 26.6878C9.41244 26.6498 9.42544 26.6138 9.43544 26.5758C9.4516 26.5103 9.47163 26.4459 9.49544 26.3828C9.51244 26.3398 9.53344 26.2988 9.55444 26.2568C9.57544 26.2148 9.60644 26.1568 9.63644 26.1048C9.66644 26.0528 9.69144 26.0228 9.72144 25.9838C9.75251 25.9404 9.78589 25.8987 9.82144 25.8588C9.85544 25.8208 9.89044 25.7848 9.92644 25.7498C9.96244 25.7148 10.0084 25.6808 10.0504 25.6498C10.0924 25.6188 10.1294 25.5888 10.1724 25.5618C10.2154 25.5348 10.2724 25.5058 10.3214 25.4808C10.3704 25.4558 10.4044 25.4348 10.4494 25.4168C10.5206 25.3895 10.5934 25.3668 10.6674 25.3488C11.0753 25.2375 11.5101 25.2829 11.8862 25.4761C12.2623 25.6693 12.5524 25.9964 12.6994 26.3928C12.7074 26.4128 12.7104 26.4328 12.7184 26.4518C12.7472 26.529 12.7703 26.6082 12.7874 26.6888C12.8085 26.7945 12.8195 26.902 12.8204 27.0098V27.0158M21.4654 26.1158L21.4794 26.1408C21.5442 26.2517 21.5966 26.3694 21.6354 26.4918C21.6454 26.5218 21.6554 26.5518 21.6634 26.5818C21.7277 26.8177 21.7403 27.0647 21.7004 27.3059C21.6605 27.5471 21.569 27.7769 21.4323 27.9796C21.2955 28.1822 21.1166 28.353 20.9078 28.4802C20.699 28.6075 20.4653 28.6882 20.2224 28.7168C20.1483 28.7287 20.0735 28.7361 19.9984 28.7388C19.9156 28.7367 19.8331 28.7286 19.7514 28.7148C19.3441 28.6512 18.9723 28.4458 18.7017 28.1347C18.4311 27.8237 18.2791 27.427 18.2724 27.0148C18.2743 26.8712 18.2945 26.7284 18.3324 26.5898C18.3414 26.5568 18.3524 26.5248 18.3624 26.4898C18.4001 26.3693 18.4514 26.2536 18.5154 26.1448C18.5214 26.1348 18.5254 26.1248 18.5314 26.1148C18.684 25.8623 18.8993 25.6534 19.1563 25.5084C19.4133 25.3634 19.7034 25.2872 19.9984 25.2872C20.2935 25.2872 20.5836 25.3634 20.8406 25.5084C21.0976 25.6534 21.3128 25.8633 21.4654 26.1158ZM19.1814 15.7148H17.7734V11.2658H22.2274V15.7198H19.1844L19.1814 15.7148ZM30.6294 27.0128C30.6294 27.0358 30.6234 27.0578 30.6224 27.0808C30.596 27.5223 30.4045 27.9377 30.0861 28.2446C29.7677 28.5515 29.3456 28.7276 28.9034 28.7378C28.8364 28.735 28.7697 28.7283 28.7034 28.7178C28.3015 28.6722 27.9286 28.4861 27.6507 28.1922C27.3727 27.8983 27.2076 27.5157 27.1844 27.1118C27.1844 27.0788 27.1744 27.0468 27.1744 27.0118V27.0058C27.1747 26.8977 27.1854 26.7899 27.2064 26.6838C27.2242 26.604 27.2473 26.5255 27.2754 26.4488C27.2824 26.4288 27.2864 26.4088 27.2944 26.3888C27.4199 26.065 27.6403 25.7867 27.9267 25.5904C28.2131 25.3941 28.5522 25.289 28.8994 25.2888C29.0413 25.2905 29.1824 25.31 29.3194 25.3468C29.396 25.3643 29.4712 25.3873 29.5444 25.4158C29.5884 25.4338 29.6284 25.4578 29.6704 25.4778C29.7124 25.4978 29.7704 25.5288 29.8224 25.5598C29.8744 25.5908 29.9034 25.6178 29.9434 25.6478C29.9834 25.6778 30.0284 25.7138 30.0674 25.7478C30.1064 25.7818 30.1394 25.8188 30.1724 25.8558C30.2054 25.8928 30.2434 25.9378 30.2724 25.9818C30.3014 26.0258 30.3304 26.0608 30.3564 26.1028C30.3824 26.1448 30.4134 26.2028 30.4384 26.2548C30.4634 26.3068 30.4804 26.3368 30.4974 26.3808C30.5212 26.4436 30.5413 26.5077 30.5574 26.5728C30.5674 26.6108 30.5814 26.6468 30.5884 26.6858C30.6098 26.7928 30.6209 26.9017 30.6214 27.0108L30.6294 27.0128Z" fill="#635EFF"/>
</g>
</svg>
