<svg width="40" height="40" viewBox="0 0 40 40" fill="none" xmlns="http://www.w3.org/2000/svg">
<path d="M28 0H12C5.37258 0 0 5.37258 0 12V28C0 34.6274 5.37258 40 12 40H28C34.6274 40 40 34.6274 40 28V12C40 5.37258 34.6274 0 28 0Z" fill="#FFDFDF"/>
<mask id="mask0_974_9768" style="mask-type:luminance" maskUnits="userSpaceOnUse" x="7" y="7" width="26" height="26">
<path d="M32.7295 7.17578H7.27246V32.8238H32.7295V7.17578Z" fill="white"/>
</mask>
<g mask="url(#mask0_974_9768)">
<path d="M32.4907 31.4298L29.1137 28.0538C29.8247 27.0675 30.1621 25.8605 30.0656 24.6485C29.969 23.4364 29.4449 22.2981 28.5867 21.4368C28.5027 21.3518 28.4137 21.2768 28.3247 21.1988C28.8326 19.5843 28.9535 17.873 28.6775 16.2032C28.4016 14.5334 27.7366 12.952 26.7363 11.5868C25.736 10.2216 24.4284 9.11093 22.9194 8.34465C21.4103 7.57836 19.7421 7.17795 18.0497 7.17579C15.1917 7.17313 12.4497 8.30592 10.427 10.3249C8.4042 12.3439 7.26633 15.0838 7.26368 17.9418C7.26102 20.7998 8.39381 23.5417 10.4128 25.5645C12.4318 27.5873 15.1717 28.7251 18.0297 28.7278C18.0367 28.7278 18.0427 28.7278 18.0497 28.7278C18.0567 28.7278 18.0637 28.7278 18.0707 28.7278C19.0641 28.7236 20.0521 28.582 21.0067 28.3068C21.112 28.4361 21.2247 28.5611 21.3447 28.6818C22.205 29.5421 23.3438 30.0676 24.5566 30.1642C25.7694 30.2608 26.977 29.9221 27.9627 29.2088L31.3387 32.5848C31.4133 32.6656 31.5035 32.7306 31.6038 32.7758C31.7041 32.8209 31.8125 32.8453 31.9225 32.8476C32.0325 32.8498 32.1418 32.8298 32.2439 32.7888C32.346 32.7477 32.4387 32.6865 32.5166 32.6087C32.5944 32.5309 32.6557 32.4383 32.6969 32.3362C32.738 32.2342 32.7581 32.1249 32.756 32.0149C32.7538 31.9049 32.7295 31.7964 32.6844 31.6961C32.6394 31.5957 32.5745 31.5055 32.4937 31.4308M11.5727 11.4978C12.2844 10.7855 13.1088 10.1955 14.0127 9.75179C13.8507 9.99779 13.6937 10.2588 13.5447 10.5368C12.5227 12.5903 11.9652 14.8436 11.9117 17.1368H8.94468C9.12956 15.0064 10.0602 13.0095 11.5727 11.4978ZM8.94668 18.7758H11.9147C11.9463 21.3768 12.6712 23.9223 14.0147 26.1498C12.6091 25.4577 11.4048 24.4161 10.5174 23.1249C9.62993 21.8336 9.08908 20.3361 8.94668 18.7758ZM17.2297 26.9358C15.2827 26.1758 13.7337 22.8098 13.5467 18.7758H17.2297V26.9358ZM17.2297 17.1428H13.5467C13.5967 15.1165 14.0881 13.1256 14.9867 11.3088C15.4459 10.2977 16.2374 9.47436 17.2297 8.97579V17.1428ZM24.5167 11.5008C26.0315 13.0129 26.9649 15.0106 27.1527 17.1428H24.1847C24.1293 14.8494 23.5705 12.5962 22.5477 10.5428C22.399 10.2655 22.2437 10.0045 22.0817 9.75979C22.9841 10.2028 23.8071 10.7917 24.5177 11.5028M27.1517 18.7758C27.1024 19.2928 27.009 19.8046 26.8727 20.3058C25.9904 19.9547 25.0284 19.8544 24.0927 20.0158C24.1357 19.6098 24.1637 19.1948 24.1807 18.7728L27.1517 18.7758ZM18.8627 8.97579C19.8554 9.47405 20.6474 10.2975 21.1067 11.3088C22.0061 13.1255 22.4988 15.1163 22.5507 17.1428H18.8627V8.97579ZM19.9727 26.1858C19.6572 26.5083 19.2796 26.7635 18.8627 26.9358V18.7758H22.5517C22.5236 19.4051 22.4605 20.0324 22.3627 20.6548C21.4263 21.2013 20.6893 22.033 20.2593 23.0283C19.8293 24.0236 19.7288 25.1293 19.9727 26.1858ZM27.9337 26.8778L27.9247 26.8688C27.6479 27.3466 27.2507 27.7435 26.7727 28.0198L26.7817 28.0288C26.4424 28.234 26.0703 28.3791 25.6817 28.4578C25.6287 28.4688 25.5757 28.4738 25.5217 28.4818C25.3718 28.5059 25.2204 28.5202 25.0687 28.5248C25.0017 28.5248 24.9357 28.5248 24.8687 28.5248C24.725 28.5197 24.5817 28.506 24.4397 28.4838C24.3747 28.4728 24.3107 28.4658 24.2467 28.4518C24.0789 28.4156 23.9141 28.3668 23.7537 28.3058C23.7207 28.2938 23.6857 28.2858 23.6537 28.2728C23.4587 28.1917 23.2716 28.093 23.0947 27.9778C23.0527 27.9518 23.0167 27.9188 22.9767 27.8908C22.873 27.8226 22.7729 27.7492 22.6767 27.6708L22.6927 27.6618C22.6347 27.6108 22.5707 27.5718 22.5157 27.5168C22.0984 27.1045 21.793 26.5926 21.6285 26.0295C21.4639 25.4664 21.4455 24.8707 21.5751 24.2986C21.7047 23.7264 21.978 23.1967 22.3692 22.7595C22.7603 22.3223 23.2564 21.992 23.8107 21.7998L23.8167 21.7758C24.628 21.4788 25.5221 21.5024 26.3167 21.8418L26.3077 21.8578C26.7263 22.0311 27.1068 22.2849 27.4277 22.6048C27.5057 22.6838 27.5647 22.7748 27.6347 22.8588C27.6347 22.8528 27.6417 22.8488 27.6437 22.8428C27.6937 22.9028 27.7307 22.9688 27.7757 23.0318C27.8207 23.0948 27.8757 23.1598 27.9127 23.2318C27.9909 23.3604 28.0608 23.4941 28.1217 23.6318C28.1457 23.6838 28.1767 23.7318 28.1977 23.7868C28.2696 23.9707 28.3258 24.1604 28.3657 24.3538C28.3797 24.4188 28.3847 24.4848 28.3947 24.5538C28.4157 24.6919 28.4291 24.8312 28.4347 24.9708C28.4347 25.0408 28.4347 25.1108 28.4347 25.1808C28.4301 25.3262 28.4161 25.4712 28.3927 25.6148C28.3837 25.6728 28.3767 25.7308 28.3647 25.7878C28.2866 26.1739 28.1424 26.5436 27.9387 26.8808" fill="#FF5E5E"/>
</g>
</svg>
