<svg width="24" height="34" viewBox="0 0 24 34" fill="none" xmlns="http://www.w3.org/2000/svg">
<path d="M12 33.1784C11.0895 31.9802 8.74046 28.828 6.41671 25.2089C2.54597 19.1804 0.5 14.6129 0.5 12C0.5 8.92824 1.69621 6.04033 3.86827 3.86827C6.04033 1.69621 8.92824 0.5 12 0.5C15.0718 0.5 17.9597 1.69621 20.1317 3.86827C22.3038 6.04033 23.5 8.92824 23.5 12C23.5 14.6138 21.4527 19.1835 17.5793 25.2151C15.2559 28.8331 12.9098 31.9813 12 33.1784Z" fill="#008000"/>
<path d="M12 1C9.06179 1 6.29945 2.1442 4.22182 4.22182C2.1442 6.29945 1 9.06179 1 12C1 13.7544 2.01205 17.4223 6.83345 24.9325C8.8639 28.0953 10.9149 30.9015 12 32.3485C13.0833 30.9041 15.1292 28.1051 17.1586 24.9449C21.9866 17.4268 23 13.7558 23 12C23 9.06179 21.8558 6.29945 19.7782 4.22182C17.7006 2.1442 14.9382 1 12 1ZM12 0C18.6274 0 24 5.37258 24 12C24 18.6274 12 34 12 34C12 34 0 18.6274 0 12C0 5.37258 5.37258 0 12 0Z" fill="#004500"/>
<path d="M11.9546 10.8008V11.709H8.53662V12.2656H10.9878V14.4336H6.03662V14.9219H11.2222V15.8398H4.81592V13.5938H9.75732V13.1543H4.80615V12.2656H7.29639V11.709H3.88818V10.8008H11.9546ZM4.20068 9.63867C5.97803 9.56055 6.88135 9.13574 7.14014 8.62305H4.6499V7.70508H7.29639V7.00195H8.52686V7.70508H11.1929V8.62305H8.67822C8.93213 9.13574 9.84033 9.56055 11.6323 9.63867L11.271 10.5566C9.62061 10.4736 8.47314 10.0586 7.91162 9.38965C7.3501 10.0586 6.20752 10.4736 4.54248 10.5566L4.20068 9.63867ZM14.0151 7.41211V8.4668H15.8315V7.41211H17.0815V11.2891H12.7749V7.41211H14.0151ZM13.6636 12.832V11.8652H19.562V14.2773H14.9038V14.8535H19.8159V15.8398H13.6831V13.3887H18.3218V12.832H13.6636ZM14.0151 10.3125H15.8315V9.4043H14.0151V10.3125ZM18.312 11.5332V7.01172H19.562V8.74023H20.7632V9.74609H19.562V11.5332H18.312Z" fill="white"/>
</svg>
