<svg width="70" height="70" viewBox="0 0 70 70" fill="none" xmlns="http://www.w3.org/2000/svg">
<path d="M35 10C48.6992 10.0002 59.8226 21.0193 59.9951 34.6777C59.8242 27.9231 54.2947 22.5 47.499 22.5C40.5958 22.5002 35 28.0966 35 35L34.9951 35.3223C34.8242 42.0768 29.2956 47.4999 22.5 47.5C15.5965 47.5 10 41.9036 10 35C10 21.1929 21.1931 10 35 10Z" fill="#BE1B1B"/>
<path d="M47.499 22.5C54.4025 22.5 59.999 28.0964 59.999 35C59.999 48.807 48.8068 59.9998 35 60C21.409 59.9998 10.3512 49.1542 10.0088 35.6455L10.0039 35.3223C10.1748 42.0769 15.7043 47.5 22.5 47.5C29.2956 47.4999 34.8242 42.0768 34.9951 35.3223L35 35C35 28.0966 40.5958 22.5002 47.499 22.5Z" fill="#1A3CAD"/>
<circle cx="35" cy="35" r="30" transform="matrix(1 0 0 -1 0 70)" stroke="black" stroke-width="10"/>
</svg>
