<svg width="2721" height="1747" viewBox="0 0 2721 1747" fill="none" xmlns="http://www.w3.org/2000/svg">
<g id="Frame 1261158457">
<rect width="2721" height="1747" fill="white"/>
<circle id="1751" cx="436" cy="750" r="50" fill="#D9D9D9"/>
<circle id="1458" cx="933" cy="746" r="50" fill="#D9D9D9"/>
<circle id="1708" cx="933" cy="750" r="50" fill="#D9D9D9"/>
<circle id="1457" cx="1392" cy="750" r="50" fill="#D9D9D9"/>
<circle id="1707" cx="933" cy="285" r="50" fill="#D9D9D9"/>
<circle id="1709" cx="933" cy="1254" r="50" fill="#D9D9D9"/>
<line id="1751-1451" x1="488.053" y1="741" x2="869.053" y2="745.021" stroke="#1346FF" stroke-width="10"/>
<line id="1708-1709" x1="934" y1="816.948" x2="938" y2="1203.95" stroke="#FF1332" stroke-width="10"/>
<line id="1707-1708" x1="930" y1="334.948" x2="934" y2="721.948" stroke="#FF1332" stroke-width="10"/>
<line id="1457-1458" x1="991.013" y1="736.5" x2="1342.01" y2="745.5" stroke="black"/>
<circle id="1456" cx="1875" cy="750" r="50" fill="#D9D9D9"/>
<line id="1456-1457" x1="1474.01" y1="736.5" x2="1825.01" y2="745.5" stroke="black"/>
<path id="Star 1" d="M1920 1009L1939.08 1067.73H2000.84L1950.88 1104.03L1969.96 1162.77L1920 1126.47L1870.04 1162.77L1889.12 1104.03L1839.16 1067.73H1900.92L1920 1009Z" fill="#D9D9D9"/>
<path id="Star 2" d="M545 1230L559.593 1274.91H606.819L568.613 1302.67L583.206 1347.59L545 1319.83L506.794 1347.59L521.387 1302.67L483.181 1274.91H530.407L545 1230Z" fill="#D9D9D9"/>
<path id="Vector 38" d="M1663.49 1337.62C1486.37 1378.9 1398.56 1399.3 1411.94 1397.14C1438.05 1392.91 1483.42 1393.2 1531.57 1395.36C1577.02 1397.4 1607.68 1408.81 1639.97 1408.43C1644.13 1408.38 1641.82 1401.98 1637.92 1396.76C1628.96 1384.74 1596.01 1358.68 1555.64 1326.55C1541.11 1314.99 1538.48 1313.34 1535.86 1313.74C1533.24 1314.15 1530.66 1316.73 1528.9 1321.06C1509.34 1369.32 1521.91 1441.87 1526.23 1436.25C1531.63 1429.21 1568.49 1403.86 1619.29 1368.7C1646.09 1348.93 1658.23 1342 1666.91 1335.5C1670.43 1332.44 1672.15 1329.86 1679.13 1321.99" stroke="#FFB3B3" stroke-width="2" stroke-linecap="round"/>
<path id="Vector 39" d="M496.185 938.967C455.434 1014.45 420.831 1047.36 405.432 1059.68C402.163 1062.3 421.405 1055.36 460.658 1048.04C491.455 1042.29 543.764 1029.54 569.924 1022.05C596.084 1014.56 594.364 1011.98 589.179 1009.79C583.994 1007.6 575.396 1005.88 548.18 998.544C520.965 991.209 475.393 978.312 452.776 975.107C430.159 971.902 431.879 978.781 438.354 993.072C454.822 1029.42 476.982 1065.63 493.033 1089.49C502.059 1102.92 508.328 1108.31 511.363 1110.92C513.896 1113.11 514.425 1102.29 511.845 1074.72C509.584 1050.56 504.106 1005.88 500.589 979.406C495.352 946.054 493.58 933.808 493.15 924.701C492.72 920.754 491.86 918.174 490.974 915.517" stroke="#FFB3B3" stroke-width="2" stroke-linecap="round"/>
</g>
</svg>
